<svg viewBox="0 0 625 400" xmlns="http://www.w3.org/2000/svg"><g><g><g><g><g><line x1="30" y1="377" x2="25" y2="377" style="visibility: inherit;" fill="rgb(0, 0, 0)" stroke="rgb(204, 204, 204)" stroke-width="1px"></line><line x1="30" y1="339.3" x2="25" y2="339.3" style="visibility: inherit;" fill="rgb(0, 0, 0)" stroke="rgb(204, 204, 204)" stroke-width="1px"></line><line x1="30" y1="301.6" x2="25" y2="301.6" style="visibility: inherit;" fill="rgb(0, 0, 0)" stroke="rgb(204, 204, 204)" stroke-width="1px"></line><line x1="30" y1="263.9" x2="25" y2="263.9" style="visibility: inherit;" fill="rgb(0, 0, 0)" stroke="rgb(204, 204, 204)" stroke-width="1px"></line><line x1="30" y1="226.2" x2="25" y2="226.2" style="visibility: inherit;" fill="rgb(0, 0, 0)" stroke="rgb(204, 204, 204)" stroke-width="1px"></line><line x1="30" y1="188.5" x2="25" y2="188.5" style="visibility: inherit;" fill="rgb(0, 0, 0)" stroke="rgb(204, 204, 204)" stroke-width="1px"></line><line x1="30" y1="150.8" x2="25" y2="150.8" style="visibility: inherit;" fill="rgb(0, 0, 0)" stroke="rgb(204, 204, 204)" stroke-width="1px"></line><line x1="30" y1="113.10000000000002" x2="25" y2="113.10000000000002" style="visibility: inherit;" fill="rgb(0, 0, 0)" stroke="rgb(204, 204, 204)" stroke-width="1px"></line><line x1="30" y1="75.39999999999998" x2="25" y2="75.39999999999998" style="visibility: inherit;" fill="rgb(0, 0, 0)" stroke="rgb(204, 204, 204)" stroke-width="1px"></line><line x1="30" y1="37.69999999999999" x2="25" y2="37.69999999999999" style="visibility: inherit;" fill="rgb(0, 0, 0)" stroke="rgb(204, 204, 204)" stroke-width="1px"></line><line x1="30" y1="0" x2="25" y2="0" style="visibility: inherit;" fill="rgb(0, 0, 0)" stroke="rgb(204, 204, 204)" stroke-width="1px"></line></g><g transform="translate(20, 0)"><text x="0" y="377" dx="0em" dy="0.3em" style="text-anchor: end; visibility: hidden; font-family: Roboto, sans-serif; font-size: 12px; font-weight: 200;" fill="rgb(33, 33, 33)" stroke="none" stroke-width="1px">30</text><text x="0" y="339.3" dx="0em" dy="0.3em" style="text-anchor: end; visibility: inherit; font-family: Roboto, sans-serif; font-size: 12px; font-weight: 200;" fill="rgb(33, 33, 33)" stroke="none" stroke-width="1px">35</text><text x="0" y="301.6" dx="0em" dy="0.3em" style="text-anchor: end; visibility: inherit; font-family: Roboto, sans-serif; font-size: 12px; font-weight: 200;" fill="rgb(33, 33, 33)" stroke="none" stroke-width="1px">40</text><text x="0" y="263.9" dx="0em" dy="0.3em" style="text-anchor: end; visibility: inherit; font-family: Roboto, sans-serif; font-size: 12px; font-weight: 200;" fill="rgb(33, 33, 33)" stroke="none" stroke-width="1px">45</text><text x="0" y="226.2" dx="0em" dy="0.3em" style="text-anchor: end; visibility: inherit; font-family: Roboto, sans-serif; font-size: 12px; font-weight: 200;" fill="rgb(33, 33, 33)" stroke="none" stroke-width="1px">50</text><text x="0" y="188.5" dx="0em" dy="0.3em" style="text-anchor: end; visibility: inherit; font-family: Roboto, sans-serif; font-size: 12px; font-weight: 200;" fill="rgb(33, 33, 33)" stroke="none" stroke-width="1px">55</text><text x="0" y="150.8" dx="0em" dy="0.3em" style="text-anchor: end; visibility: inherit; font-family: Roboto, sans-serif; font-size: 12px; font-weight: 200;" fill="rgb(33, 33, 33)" stroke="none" stroke-width="1px">60</text><text x="0" y="113.10000000000002" dx="0em" dy="0.3em" style="text-anchor: end; visibility: inherit; font-family: Roboto, sans-serif; font-size: 12px; font-weight: 200;" fill="rgb(33, 33, 33)" stroke="none" stroke-width="1px">65</text><text x="0" y="75.39999999999998" dx="0em" dy="0.3em" style="text-anchor: end; visibility: inherit; font-family: Roboto, sans-serif; font-size: 12px; font-weight: 200;" fill="rgb(33, 33, 33)" stroke="none" stroke-width="1px">70</text><text x="0" y="37.69999999999999" dx="0em" dy="0.3em" style="text-anchor: end; visibility: inherit; font-family: Roboto, sans-serif; font-size: 12px; font-weight: 200;" fill="rgb(33, 33, 33)" stroke="none" stroke-width="1px">75</text><text x="0" y="0" dx="0em" dy="0.3em" style="text-anchor: end; visibility: hidden; font-family: Roboto, sans-serif; font-size: 12px; font-weight: 200;" fill="rgb(33, 33, 33)" stroke="none" stroke-width="1px">80</text></g><line x1="30" y1="0" x2="30" y2="377" fill="rgb(0, 0, 0)" stroke="rgb(204, 204, 204)" stroke-width="1px"></line></g></g><g transform="translate(30, 0)" clip-path="url(#clip_0)"><clipPath id="clip_0"><rect width="595" height="377"></rect></clipPath><g><g><g><line x1="0" y1="0" x2="0" y2="377" fill="rgb(0, 0, 0)" stroke="rgb(66, 66, 66)" stroke-width="1px" opacity="0.25"></line><line x1="42.5" y1="0" x2="42.5" y2="377" fill="rgb(0, 0, 0)" stroke="rgb(66, 66, 66)" stroke-width="1px" opacity="0.25"></line><line x1="85" y1="0" x2="85" y2="377" fill="rgb(0, 0, 0)" stroke="rgb(66, 66, 66)" stroke-width="1px" opacity="0.25"></line><line x1="127.5" y1="0" x2="127.5" y2="377" fill="rgb(0, 0, 0)" stroke="rgb(66, 66, 66)" stroke-width="1px" opacity="0.25"></line><line x1="170" y1="0" x2="170" y2="377" fill="rgb(0, 0, 0)" stroke="rgb(66, 66, 66)" stroke-width="1px" opacity="0.25"></line><line x1="212.5" y1="0" x2="212.5" y2="377" fill="rgb(0, 0, 0)" stroke="rgb(66, 66, 66)" stroke-width="1px" opacity="0.25"></line><line x1="255" y1="0" x2="255" y2="377" fill="rgb(0, 0, 0)" stroke="rgb(66, 66, 66)" stroke-width="1px" opacity="0.25"></line><line x1="297.5" y1="0" x2="297.5" y2="377" fill="rgb(0, 0, 0)" stroke="rgb(66, 66, 66)" stroke-width="1px" opacity="0.25"></line><line x1="340" y1="0" x2="340" y2="377" fill="rgb(0, 0, 0)" stroke="rgb(66, 66, 66)" stroke-width="1px" opacity="0.25"></line><line x1="382.5" y1="0" x2="382.5" y2="377" fill="rgb(0, 0, 0)" stroke="rgb(66, 66, 66)" stroke-width="1px" opacity="0.25"></line><line x1="425" y1="0" x2="425" y2="377" fill="rgb(0, 0, 0)" stroke="rgb(66, 66, 66)" stroke-width="1px" opacity="0.25"></line><line x1="467.5" y1="0" x2="467.5" y2="377" fill="rgb(0, 0, 0)" stroke="rgb(66, 66, 66)" stroke-width="1px" opacity="0.25"></line><line x1="510" y1="0" x2="510" y2="377" fill="rgb(0, 0, 0)" stroke="rgb(66, 66, 66)" stroke-width="1px" opacity="0.25"></line><line x1="552.5" y1="0" x2="552.5" y2="377" fill="rgb(0, 0, 0)" stroke="rgb(66, 66, 66)" stroke-width="1px" opacity="0.25"></line><line x1="595" y1="0" x2="595" y2="377" fill="rgb(0, 0, 0)" stroke="rgb(66, 66, 66)" stroke-width="1px" opacity="0.25"></line></g><g><line x1="0" y1="377" x2="595" y2="377" fill="rgb(0, 0, 0)" stroke="rgb(66, 66, 66)" stroke-width="1px" opacity="0.25"></line><line x1="0" y1="339.3" x2="595" y2="339.3" fill="rgb(0, 0, 0)" stroke="rgb(66, 66, 66)" stroke-width="1px" opacity="0.25"></line><line x1="0" y1="301.6" x2="595" y2="301.6" fill="rgb(0, 0, 0)" stroke="rgb(66, 66, 66)" stroke-width="1px" opacity="0.25"></line><line x1="0" y1="263.9" x2="595" y2="263.9" fill="rgb(0, 0, 0)" stroke="rgb(66, 66, 66)" stroke-width="1px" opacity="0.25"></line><line x1="0" y1="226.2" x2="595" y2="226.2" fill="rgb(0, 0, 0)" stroke="rgb(66, 66, 66)" stroke-width="1px" opacity="0.25"></line><line x1="0" y1="188.5" x2="595" y2="188.5" fill="rgb(0, 0, 0)" stroke="rgb(66, 66, 66)" stroke-width="1px" opacity="0.25"></line><line x1="0" y1="150.8" x2="595" y2="150.8" fill="rgb(0, 0, 0)" stroke="rgb(66, 66, 66)" stroke-width="1px" opacity="0.25"></line><line x1="0" y1="113.10000000000002" x2="595" y2="113.10000000000002" fill="rgb(0, 0, 0)" stroke="rgb(66, 66, 66)" stroke-width="1px" opacity="0.25"></line><line x1="0" y1="75.39999999999998" x2="595" y2="75.39999999999998" fill="rgb(0, 0, 0)" stroke="rgb(66, 66, 66)" stroke-width="1px" opacity="0.25"></line><line x1="0" y1="37.69999999999999" x2="595" y2="37.69999999999999" fill="rgb(0, 0, 0)" stroke="rgb(66, 66, 66)" stroke-width="1px" opacity="0.25"></line><line x1="0" y1="0" x2="595" y2="0" fill="rgb(0, 0, 0)" stroke="rgb(66, 66, 66)" stroke-width="1px" opacity="0.25"></line></g></g></g><g><g><line x1="0" y1="603.2" x2="595" y2="603.2" fill="rgb(0, 0, 0)" stroke="rgb(153, 153, 153)" stroke-width="1.5px"></line></g></g><g><g><line x1="42.5" y1="0" x2="42.5" y2="377" fill="rgb(0, 0, 0)" stroke="rgb(153, 153, 153)" stroke-width="1.5px"></line></g></g><g><g><g><g><g><path stroke="rgb(255, 112, 67)" stroke-width="2px" d="M51,397.5828259121642L55.25,375.88054860956527L59.5,357.1112893938307L63.75,342.1860639500746L68,330.35902401649327L72.25,320.4857736419336L76.49999999999999,312.02178986816693L80.75,304.6618730763044L85,299.4975902808627L89.25,294.67136878628344L93.5,290.88310357599767L97.75,286.90961077793986L102,283.7899135235601L106.25,280.923479335815L110.5,278.84885551657015L114.75,276.4413531974214L119,274.8797063820066L123.25000000000001,273.1753476662719L127.5,272.055586379365L131.75,270.77049097986895L136,269.90225999076034L140.25,268.9758371698972L144.5,267.97428790665333L148.75,266.85728531612875L152.99999999999997,266.4518297285548L157.25,265.1194461400175L161.5,265.05055782586453L165.75,263.61850781032626L170,263.3624803846571L174.25,262.8536431280417L178.5,262.7795708525359L182.75,262.30618182901316L187,261.8244328134915L191.25,261.2572469625182L195.5,261.25874127444393L199.74999999999997,260.94798698153005L204,260.43982804594026L208.25,260.03105289391215L212.5,260.1711635357761L216.75,260.2820368666362L221,259.91626722485654L225.25,259.2310088699514L229.5,258.4110076656356L233.75,257.9324219211289L238,258.13452599814383L242.25,257.0359803693695L246.50000000000003,257.30846914203556L250.75,257.4451554598318L255,240.11144239690873L259.25,223.9774619651979L263.5,212.3333211122038L267.75,203.5037267676549L272,196.56727191874293L276.25,191.4503354107652L280.5,187.13355848522775L284.75,183.5147038777572L289,180.90438998412483L293.25,178.69814842528922L297.5,176.1847503527809L301.75,174.76719933276232L305.99999999999994,172.93478667119055L310.25,171.68119338332957L314.5,170.47998080050564L318.75,169.08903358528377L323,167.4870617832503L327.25,165.92938389001856L331.5,164.74343615066152L335.75,163.7034651632972L340,162.27521667122048L344.25000000000006,161.37805715727333L348.5,160.56832098869987L352.75,158.92968857710667L357,157.3868767448968L361.25,156.30033646563928L365.5,154.4788701227918L369.75,153.89200881073563L374,152.564728968082L378.25,150.69264319749962L382.5,149.8441916924255L386.75,148.47388150105107L391,146.5290711186482L395.25,145.04047852934318L399.49999999999994,143.6714709249789L403.75,142.6154883289131L408,140.72522826956467L412.25,140.31491729621146L416.5,138.6914174492601L420.75,137.0504458675053L425,135.8245889011184L429.25,134.94162501425498L433.5,133.45678308350415L437.75000000000006,132.31118892969232L442,130.64530988491498L446.25,130.02445070145683L450.5,129.31347736667487L454.74999999999994,128.38422286409673L459,126.81463317524515L463.25,125.27303655797904L467.5,105.96387515744367L471.75,87.5421239225912L476,73.1010894170312L480.25,62.787738000804744L484.5,54.40809250751415L488.75,48.076728307242874L493.00000000000006,42.69952142038087L497.25,38.31707009099807L501.5,34.66886632217689L505.75,30.864693267427253L510,27.757824078132153L514.25,24.4493719371137L518.5,21.827583916662743L522.75,18.900679805564003L527,16.092278427772055L531.25,13.690100027854665L535.5,11.457930561146368L539.75,8.774830052996466L544,6.605337362852526L548.25,4.5261943000357645" style="fill: none;" fill="none"></path></g></g></g></g><g opacity="0.2"><g><g><g><path stroke="rgb(255, 112, 67)" stroke-width="2px" d="M46.75,403.1219017791748L51,372.98704048156736L55.25,350.358670501709L59.5,332.6061445617676L63.75,321.5391040802002L68,313.446167678833L72.25,306.09047981262205L76.49999999999999,299.53905784606934L80.75,293.73325439453123L85,291.7980057525635L89.25,287.45830062866213L93.5,285.21307510375976L97.75,280.9571560668945L102,279.11403472900395L106.25,276.6258496856689L110.5,275.7377976989746L114.75,272.8307109832764L119,272.53747406005857L123.25000000000001,270.6189653778076L127.5,270.37600585937497L131.75,268.8428901672363L136,268.5999306488037L140.25,267.58621391296384L144.5,266.4719711303711L148.75,265.1817861938477L152.99999999999997,265.84364738464353L157.25,263.12087280273437L161.5,264.9472254180908L165.75,261.47043357849117L170,262.9784393310547L174.25,262.09038734436035L178.5,262.6684624481201L182.75,261.5960983276367L187,261.1018093109131L191.25,260.4064682006836L195.5,261.2609827423096L199.74999999999997,260.48185554504397L204,259.67758964538575L208.25,259.41789016723635L212.5,260.381329498291L216.75,260.44834686279296L221,259.36761276245113L225.25,258.20312133789065L229.5,257.181005859375L233.75,257.21454330444334L238,258.43768211364744L242.25,255.38816192626953L246.50000000000003,257.7172023010254L250.75,257.65018493652343L255,214.11087280273438L259.25,199.77649131774905L263.5,194.86710983276367L267.75,190.2593352508545L272,186.16258964538576L276.25,183.7749306488037L280.5,180.65839309692382L284.75,178.08642196655273L289,176.98891914367672L293.25,175.38878608703612L297.5,172.41465324401855L301.75,172.64087280273438L305.99999999999994,170.186167678833L310.25,169.8008034515381L314.5,168.67816192626955L318.75,167.00261276245115L323,165.0841040802002L327.25,163.5928670501709L331.5,162.964514541626L335.75,162.14350868225097L340,160.13284393310545L344.25000000000006,160.03231788635253L348.5,159.3537167358398L352.75,156.47173995971679L357,155.07265899658202L361.25,154.67052604675294L365.5,151.74667060852047L369.75,153.01171684265137L374,150.57380920410156L378.25,147.88451454162598L382.5,148.57151443481447L386.75,146.41841621398925L391,143.61185554504397L395.25,142.80758964538578L399.49999999999994,141.61795951843263L403.75,141.03151443481445L408,137.88983818054197L412.25,139.69945083618165L416.5,136.256167678833L420.75,134.58898849487304L425,133.9858034515381L429.25,133.61717918395996L433.5,131.22952018737794L437.75000000000006,130.5927976989746L442,128.14649131774902L446.25,129.09316192626954L450.5,128.24701736450194L454.74999999999994,126.99034111022948L459,124.46024864196777L463.25,122.96064163208008L467.5,77.00013305664064L471.75,59.90949707031251L476,51.439537658691386L480.25,47.317710876464844L484.5,41.83862426757813L488.75,38.57968200683592L493.00000000000006,34.633711090087886L497.25,31.743393096923814L501.5,29.19656066894532L505.75,25.158433685302736L510,23.097520294189444L514.25,19.486693725585955L518.5,17.89490188598631L522.75,14.510323638916036L527,11.879676361083988L531.25,10.086832427978498L535.5,8.109676361083984L539.75,4.750179290771484L544,3.351098327636724L548.25,1.4074797058105368" style="fill: none;" fill="none"></path></g></g></g></g></g></g><g transform="translate(30, 377)" clip-path="url(#clip_1)"><clipPath id="clip_1"><rect width="595" height="23"></rect></clipPath><g><g><line x1="0" y1="0" x2="0" y2="5" style="visibility: inherit;" fill="rgb(0, 0, 0)" stroke="rgb(204, 204, 204)" stroke-width="1px"></line><line x1="42.5" y1="0" x2="42.5" y2="5" style="visibility: inherit;" fill="rgb(0, 0, 0)" stroke="rgb(204, 204, 204)" stroke-width="1px"></line><line x1="85" y1="0" x2="85" y2="5" style="visibility: inherit;" fill="rgb(0, 0, 0)" stroke="rgb(204, 204, 204)" stroke-width="1px"></line><line x1="127.5" y1="0" x2="127.5" y2="5" style="visibility: inherit;" fill="rgb(0, 0, 0)" stroke="rgb(204, 204, 204)" stroke-width="1px"></line><line x1="170" y1="0" x2="170" y2="5" style="visibility: inherit;" fill="rgb(0, 0, 0)" stroke="rgb(204, 204, 204)" stroke-width="1px"></line><line x1="212.5" y1="0" x2="212.5" y2="5" style="visibility: inherit;" fill="rgb(0, 0, 0)" stroke="rgb(204, 204, 204)" stroke-width="1px"></line><line x1="255" y1="0" x2="255" y2="5" style="visibility: inherit;" fill="rgb(0, 0, 0)" stroke="rgb(204, 204, 204)" stroke-width="1px"></line><line x1="297.5" y1="0" x2="297.5" y2="5" style="visibility: inherit;" fill="rgb(0, 0, 0)" stroke="rgb(204, 204, 204)" stroke-width="1px"></line><line x1="340" y1="0" x2="340" y2="5" style="visibility: inherit;" fill="rgb(0, 0, 0)" stroke="rgb(204, 204, 204)" stroke-width="1px"></line><line x1="382.5" y1="0" x2="382.5" y2="5" style="visibility: inherit;" fill="rgb(0, 0, 0)" stroke="rgb(204, 204, 204)" stroke-width="1px"></line><line x1="425" y1="0" x2="425" y2="5" style="visibility: inherit;" fill="rgb(0, 0, 0)" stroke="rgb(204, 204, 204)" stroke-width="1px"></line><line x1="467.5" y1="0" x2="467.5" y2="5" style="visibility: inherit;" fill="rgb(0, 0, 0)" stroke="rgb(204, 204, 204)" stroke-width="1px"></line><line x1="510" y1="0" x2="510" y2="5" style="visibility: inherit;" fill="rgb(0, 0, 0)" stroke="rgb(204, 204, 204)" stroke-width="1px"></line><line x1="552.5" y1="0" x2="552.5" y2="5" style="visibility: inherit;" fill="rgb(0, 0, 0)" stroke="rgb(204, 204, 204)" stroke-width="1px"></line><line x1="595" y1="0" x2="595" y2="5" style="visibility: inherit;" fill="rgb(0, 0, 0)" stroke="rgb(204, 204, 204)" stroke-width="1px"></line></g><g transform="translate(0, 8)"><text x="0" y="0" dx="0em" dy="0.95em" style="text-anchor: middle; visibility: hidden; font-family: Roboto, sans-serif; font-size: 12px; font-weight: 200;" fill="rgb(33, 33, 33)" stroke="none" stroke-width="1px">-10</text><text x="42.5" y="0" dx="0em" dy="0.95em" style="text-anchor: middle; visibility: inherit; font-family: Roboto, sans-serif; font-size: 12px; font-weight: 200;" fill="rgb(33, 33, 33)" stroke="none" stroke-width="1px">0</text><text x="85" y="0" dx="0em" dy="0.95em" style="text-anchor: middle; visibility: inherit; font-family: Roboto, sans-serif; font-size: 12px; font-weight: 200;" fill="rgb(33, 33, 33)" stroke="none" stroke-width="1px">10</text><text x="127.5" y="0" dx="0em" dy="0.95em" style="text-anchor: middle; visibility: inherit; font-family: Roboto, sans-serif; font-size: 12px; font-weight: 200;" fill="rgb(33, 33, 33)" stroke="none" stroke-width="1px">20</text><text x="170" y="0" dx="0em" dy="0.95em" style="text-anchor: middle; visibility: inherit; font-family: Roboto, sans-serif; font-size: 12px; font-weight: 200;" fill="rgb(33, 33, 33)" stroke="none" stroke-width="1px">30</text><text x="212.5" y="0" dx="0em" dy="0.95em" style="text-anchor: middle; visibility: inherit; font-family: Roboto, sans-serif; font-size: 12px; font-weight: 200;" fill="rgb(33, 33, 33)" stroke="none" stroke-width="1px">40</text><text x="255" y="0" dx="0em" dy="0.95em" style="text-anchor: middle; visibility: inherit; font-family: Roboto, sans-serif; font-size: 12px; font-weight: 200;" fill="rgb(33, 33, 33)" stroke="none" stroke-width="1px">50</text><text x="297.5" y="0" dx="0em" dy="0.95em" style="text-anchor: middle; visibility: inherit; font-family: Roboto, sans-serif; font-size: 12px; font-weight: 200;" fill="rgb(33, 33, 33)" stroke="none" stroke-width="1px">60</text><text x="340" y="0" dx="0em" dy="0.95em" style="text-anchor: middle; visibility: inherit; font-family: Roboto, sans-serif; font-size: 12px; font-weight: 200;" fill="rgb(33, 33, 33)" stroke="none" stroke-width="1px">70</text><text x="382.5" y="0" dx="0em" dy="0.95em" style="text-anchor: middle; visibility: inherit; font-family: Roboto, sans-serif; font-size: 12px; font-weight: 200;" fill="rgb(33, 33, 33)" stroke="none" stroke-width="1px">80</text><text x="425" y="0" dx="0em" dy="0.95em" style="text-anchor: middle; visibility: inherit; font-family: Roboto, sans-serif; font-size: 12px; font-weight: 200;" fill="rgb(33, 33, 33)" stroke="none" stroke-width="1px">90</text><text x="467.5" y="0" dx="0em" dy="0.95em" style="text-anchor: middle; visibility: inherit; font-family: Roboto, sans-serif; font-size: 12px; font-weight: 200;" fill="rgb(33, 33, 33)" stroke="none" stroke-width="1px">100</text><text x="510" y="0" dx="0em" dy="0.95em" style="text-anchor: middle; visibility: inherit; font-family: Roboto, sans-serif; font-size: 12px; font-weight: 200;" fill="rgb(33, 33, 33)" stroke="none" stroke-width="1px">110</text><text x="552.5" y="0" dx="0em" dy="0.95em" style="text-anchor: middle; visibility: inherit; font-family: Roboto, sans-serif; font-size: 12px; font-weight: 200;" fill="rgb(33, 33, 33)" stroke="none" stroke-width="1px">120</text><text x="595" y="0" dx="0em" dy="0.95em" style="text-anchor: middle; visibility: hidden; font-family: Roboto, sans-serif; font-size: 12px; font-weight: 200;" fill="rgb(33, 33, 33)" stroke="none" stroke-width="1px">130</text></g><line x1="0" y1="0" x2="595" y2="0" fill="rgb(0, 0, 0)" stroke="rgb(204, 204, 204)" stroke-width="1px"></line></g></g></g></g></svg>