<svg viewBox="0 0 625 400" xmlns="http://www.w3.org/2000/svg"><g><g><g><g><g><line x1="30" y1="377" x2="25" y2="377" style="visibility: inherit;" fill="rgb(0, 0, 0)" stroke="rgb(204, 204, 204)" stroke-width="1px"></line><line x1="30" y1="339.3" x2="25" y2="339.3" style="visibility: inherit;" fill="rgb(0, 0, 0)" stroke="rgb(204, 204, 204)" stroke-width="1px"></line><line x1="30" y1="301.6" x2="25" y2="301.6" style="visibility: inherit;" fill="rgb(0, 0, 0)" stroke="rgb(204, 204, 204)" stroke-width="1px"></line><line x1="30" y1="263.9" x2="25" y2="263.9" style="visibility: inherit;" fill="rgb(0, 0, 0)" stroke="rgb(204, 204, 204)" stroke-width="1px"></line><line x1="30" y1="226.2" x2="25" y2="226.2" style="visibility: inherit;" fill="rgb(0, 0, 0)" stroke="rgb(204, 204, 204)" stroke-width="1px"></line><line x1="30" y1="188.5" x2="25" y2="188.5" style="visibility: inherit;" fill="rgb(0, 0, 0)" stroke="rgb(204, 204, 204)" stroke-width="1px"></line><line x1="30" y1="150.8" x2="25" y2="150.8" style="visibility: inherit;" fill="rgb(0, 0, 0)" stroke="rgb(204, 204, 204)" stroke-width="1px"></line><line x1="30" y1="113.10000000000002" x2="25" y2="113.10000000000002" style="visibility: inherit;" fill="rgb(0, 0, 0)" stroke="rgb(204, 204, 204)" stroke-width="1px"></line><line x1="30" y1="75.39999999999998" x2="25" y2="75.39999999999998" style="visibility: inherit;" fill="rgb(0, 0, 0)" stroke="rgb(204, 204, 204)" stroke-width="1px"></line><line x1="30" y1="37.69999999999999" x2="25" y2="37.69999999999999" style="visibility: inherit;" fill="rgb(0, 0, 0)" stroke="rgb(204, 204, 204)" stroke-width="1px"></line><line x1="30" y1="0" x2="25" y2="0" style="visibility: inherit;" fill="rgb(0, 0, 0)" stroke="rgb(204, 204, 204)" stroke-width="1px"></line></g><g transform="translate(20, 0)"><text x="0" y="377" dx="0em" dy="0.3em" style="text-anchor: end; visibility: hidden; font-family: Roboto, sans-serif; font-size: 12px; font-weight: 200;" fill="rgb(33, 33, 33)" stroke="none" stroke-width="1px">76</text><text x="0" y="339.3" dx="0em" dy="0.3em" style="text-anchor: end; visibility: inherit; font-family: Roboto, sans-serif; font-size: 12px; font-weight: 200;" fill="rgb(33, 33, 33)" stroke="none" stroke-width="1px">78</text><text x="0" y="301.6" dx="0em" dy="0.3em" style="text-anchor: end; visibility: inherit; font-family: Roboto, sans-serif; font-size: 12px; font-weight: 200;" fill="rgb(33, 33, 33)" stroke="none" stroke-width="1px">80</text><text x="0" y="263.9" dx="0em" dy="0.3em" style="text-anchor: end; visibility: inherit; font-family: Roboto, sans-serif; font-size: 12px; font-weight: 200;" fill="rgb(33, 33, 33)" stroke="none" stroke-width="1px">82</text><text x="0" y="226.2" dx="0em" dy="0.3em" style="text-anchor: end; visibility: inherit; font-family: Roboto, sans-serif; font-size: 12px; font-weight: 200;" fill="rgb(33, 33, 33)" stroke="none" stroke-width="1px">84</text><text x="0" y="188.5" dx="0em" dy="0.3em" style="text-anchor: end; visibility: inherit; font-family: Roboto, sans-serif; font-size: 12px; font-weight: 200;" fill="rgb(33, 33, 33)" stroke="none" stroke-width="1px">86</text><text x="0" y="150.8" dx="0em" dy="0.3em" style="text-anchor: end; visibility: inherit; font-family: Roboto, sans-serif; font-size: 12px; font-weight: 200;" fill="rgb(33, 33, 33)" stroke="none" stroke-width="1px">88</text><text x="0" y="113.10000000000002" dx="0em" dy="0.3em" style="text-anchor: end; visibility: inherit; font-family: Roboto, sans-serif; font-size: 12px; font-weight: 200;" fill="rgb(33, 33, 33)" stroke="none" stroke-width="1px">90</text><text x="0" y="75.39999999999998" dx="0em" dy="0.3em" style="text-anchor: end; visibility: inherit; font-family: Roboto, sans-serif; font-size: 12px; font-weight: 200;" fill="rgb(33, 33, 33)" stroke="none" stroke-width="1px">92</text><text x="0" y="37.69999999999999" dx="0em" dy="0.3em" style="text-anchor: end; visibility: inherit; font-family: Roboto, sans-serif; font-size: 12px; font-weight: 200;" fill="rgb(33, 33, 33)" stroke="none" stroke-width="1px">94</text><text x="0" y="0" dx="0em" dy="0.3em" style="text-anchor: end; visibility: hidden; font-family: Roboto, sans-serif; font-size: 12px; font-weight: 200;" fill="rgb(33, 33, 33)" stroke="none" stroke-width="1px">96</text></g><line x1="30" y1="0" x2="30" y2="377" fill="rgb(0, 0, 0)" stroke="rgb(204, 204, 204)" stroke-width="1px"></line></g></g><g transform="translate(30, 0)" clip-path="url(#clip_0)"><clipPath id="clip_0"><rect width="595" height="377"></rect></clipPath><g><g><g><line x1="0" y1="0" x2="0" y2="377" fill="rgb(0, 0, 0)" stroke="rgb(66, 66, 66)" stroke-width="1px" opacity="0.25"></line><line x1="42.5" y1="0" x2="42.5" y2="377" fill="rgb(0, 0, 0)" stroke="rgb(66, 66, 66)" stroke-width="1px" opacity="0.25"></line><line x1="85" y1="0" x2="85" y2="377" fill="rgb(0, 0, 0)" stroke="rgb(66, 66, 66)" stroke-width="1px" opacity="0.25"></line><line x1="127.5" y1="0" x2="127.5" y2="377" fill="rgb(0, 0, 0)" stroke="rgb(66, 66, 66)" stroke-width="1px" opacity="0.25"></line><line x1="170" y1="0" x2="170" y2="377" fill="rgb(0, 0, 0)" stroke="rgb(66, 66, 66)" stroke-width="1px" opacity="0.25"></line><line x1="212.5" y1="0" x2="212.5" y2="377" fill="rgb(0, 0, 0)" stroke="rgb(66, 66, 66)" stroke-width="1px" opacity="0.25"></line><line x1="255" y1="0" x2="255" y2="377" fill="rgb(0, 0, 0)" stroke="rgb(66, 66, 66)" stroke-width="1px" opacity="0.25"></line><line x1="297.5" y1="0" x2="297.5" y2="377" fill="rgb(0, 0, 0)" stroke="rgb(66, 66, 66)" stroke-width="1px" opacity="0.25"></line><line x1="340" y1="0" x2="340" y2="377" fill="rgb(0, 0, 0)" stroke="rgb(66, 66, 66)" stroke-width="1px" opacity="0.25"></line><line x1="382.5" y1="0" x2="382.5" y2="377" fill="rgb(0, 0, 0)" stroke="rgb(66, 66, 66)" stroke-width="1px" opacity="0.25"></line><line x1="425" y1="0" x2="425" y2="377" fill="rgb(0, 0, 0)" stroke="rgb(66, 66, 66)" stroke-width="1px" opacity="0.25"></line><line x1="467.5" y1="0" x2="467.5" y2="377" fill="rgb(0, 0, 0)" stroke="rgb(66, 66, 66)" stroke-width="1px" opacity="0.25"></line><line x1="510" y1="0" x2="510" y2="377" fill="rgb(0, 0, 0)" stroke="rgb(66, 66, 66)" stroke-width="1px" opacity="0.25"></line><line x1="552.5" y1="0" x2="552.5" y2="377" fill="rgb(0, 0, 0)" stroke="rgb(66, 66, 66)" stroke-width="1px" opacity="0.25"></line><line x1="595" y1="0" x2="595" y2="377" fill="rgb(0, 0, 0)" stroke="rgb(66, 66, 66)" stroke-width="1px" opacity="0.25"></line></g><g><line x1="0" y1="377" x2="595" y2="377" fill="rgb(0, 0, 0)" stroke="rgb(66, 66, 66)" stroke-width="1px" opacity="0.25"></line><line x1="0" y1="339.3" x2="595" y2="339.3" fill="rgb(0, 0, 0)" stroke="rgb(66, 66, 66)" stroke-width="1px" opacity="0.25"></line><line x1="0" y1="301.6" x2="595" y2="301.6" fill="rgb(0, 0, 0)" stroke="rgb(66, 66, 66)" stroke-width="1px" opacity="0.25"></line><line x1="0" y1="263.9" x2="595" y2="263.9" fill="rgb(0, 0, 0)" stroke="rgb(66, 66, 66)" stroke-width="1px" opacity="0.25"></line><line x1="0" y1="226.2" x2="595" y2="226.2" fill="rgb(0, 0, 0)" stroke="rgb(66, 66, 66)" stroke-width="1px" opacity="0.25"></line><line x1="0" y1="188.5" x2="595" y2="188.5" fill="rgb(0, 0, 0)" stroke="rgb(66, 66, 66)" stroke-width="1px" opacity="0.25"></line><line x1="0" y1="150.8" x2="595" y2="150.8" fill="rgb(0, 0, 0)" stroke="rgb(66, 66, 66)" stroke-width="1px" opacity="0.25"></line><line x1="0" y1="113.10000000000002" x2="595" y2="113.10000000000002" fill="rgb(0, 0, 0)" stroke="rgb(66, 66, 66)" stroke-width="1px" opacity="0.25"></line><line x1="0" y1="75.39999999999998" x2="595" y2="75.39999999999998" fill="rgb(0, 0, 0)" stroke="rgb(66, 66, 66)" stroke-width="1px" opacity="0.25"></line><line x1="0" y1="37.69999999999999" x2="595" y2="37.69999999999999" fill="rgb(0, 0, 0)" stroke="rgb(66, 66, 66)" stroke-width="1px" opacity="0.25"></line><line x1="0" y1="0" x2="595" y2="0" fill="rgb(0, 0, 0)" stroke="rgb(66, 66, 66)" stroke-width="1px" opacity="0.25"></line></g></g></g><g><g><line x1="0" y1="1809.6" x2="595" y2="1809.6" fill="rgb(0, 0, 0)" stroke="rgb(153, 153, 153)" stroke-width="1.5px"></line></g></g><g><g><line x1="42.5" y1="0" x2="42.5" y2="377" fill="rgb(0, 0, 0)" stroke="rgb(153, 153, 153)" stroke-width="1.5px"></line></g></g><g><g><g><g><g><path stroke="rgb(255, 112, 67)" stroke-width="2px" d="M59.5,391.7274723910691L63.75,363.32390500277637L68,341.63378567450354L72.25,325.75568446327406L76.49999999999999,313.51956426298545L80.75,303.04594920100055L85,295.5916962119185L89.25,287.64790511377896L93.5,280.3509583548492L97.75,273.878598400083L102,268.3514445631693L106.25,263.95577687925595L110.5,261.0803407098729L114.75,257.3570921926241L119,252.9115047135609L123.25000000000001,252.15453414867537L127.5,248.99850376406755L131.75,244.46584908690446L136,241.5075611934088L140.25,240.52427494626457L144.5,240.03486127531605L148.75,237.12735971201766L152.99999999999997,234.36494479922158L157.25,232.26765638749868L161.5,230.87105001346723L165.75,229.41733198772653L170,227.69055796017108L174.25,226.93096191291454L178.5,225.74635449596647L182.75,224.44491684730403L187,222.68387497434924L191.25,221.17486827348833L195.5,219.35210295964853L199.74999999999997,217.4541778759195L204,215.98867722399575L208.25,214.20455612449288L212.5,213.90067007581925L216.75,212.59986752948473L221,211.85712281850195L225.25,211.29838059408044L229.5,209.48023944634718L233.75,208.25112065747783L238,205.42759729062126L242.25,205.19124038120322L246.50000000000003,204.52162853657433L250.75,204.29577482091722L255,190.22381468496272L259.25,176.00000261708846L263.5,166.48547855998254L267.75,158.91690282812047L272,154.2501214026798L276.25,149.95461614604952L280.5,146.77409918592014L284.75,144.4636272971963L289,140.8279192677217L293.25,138.2946676678107L297.5,136.3474162928251L301.75,134.5130336685172L305.99999999999994,132.7840515853877L310.25,131.0806305361936L314.5,128.4123668165891L318.75,127.60313389610576L323,125.25773284620865L327.25,124.02640560738357L331.5,121.64134064836566L335.75,119.70764267637297L340,118.47206531163434L344.25000000000006,117.8689529931328L348.5,115.3330192873346L352.75,113.10774797376828L357,110.89290317879231L361.25,109.75250780693372L365.5,108.75412309236324L369.75,106.7727512602031L374,105.00585305714733L378.25,103.66924593463031L382.5,101.56035676487954L386.75,99.62899146371296L391,98.84713776763198L395.25,97.37270755681949L399.49999999999994,96.24926052042L403.75,95.22336551635335L408,93.64018981152098L412.25,91.74778438862148L416.5,90.66261853966704L420.75,88.89304811354641L425,87.41660355684853L429.25,85.78934644197065L433.5,84.67475807270198L437.75000000000006,82.38487513781064L442,81.91576608610454L446.25,80.12626613969981L450.5,79.11544169065587L454.74999999999994,78.3204355161025L459,77.02656779769858L463.25,75.96123837759365L467.5,66.60075181561875L471.75,57.666898995865346L476,51.313809899227984L480.25,45.91856334432171L484.5,42.20383759155406L488.75,38.83145004638775L493.00000000000006,36.74519952612386L497.25,34.55094921396543L501.5,33.30981513384823L505.75,32.401761883043406L510,31.530184327091884L514.25,30.17783319146998L518.5,28.86376351351457L522.75,28.02504430195663L527,27.18252658117388L531.25,27.06657954733707L535.5,25.72776572156647L539.75,24.98729541926797L544,23.688527459080472L548.25,23.147998067245368" style="fill: none;" fill="none"></path></g></g></g></g><g opacity="0.2"><g><g><g><path stroke="rgb(255, 112, 67)" stroke-width="2px" d="M51,393.27385826110844L55.25,367.575L59.5,343.4783744812012L63.75,324.0315460205078L68,310.61656799316404L72.25,302.6052604675293L76.49999999999999,295.47366371154783L80.75,287.4938514709473L85,284.47792625427246L89.25,275.7754482269287L93.5,269.4293640136719L97.75,264.18273849487304L102,260.06721076965334L106.25,257.3653755187988L110.5,256.76840324401854L114.75,251.7731647491455L119,246.24380073547366L123.25000000000001,251.0191474914551L127.5,244.2646312713623L131.75,237.66701622009276L136,237.0701877593994L140.25,239.04935722351075L144.5,239.3007442474365L148.75,232.76611976623536L152.99999999999997,230.22132949829103L157.25,229.1217269897461L161.5,228.77614173889162L165.75,227.23675575256345L170,225.10039749145506L174.25,225.79156799316405L178.5,223.96944351196288L182.75,222.4927604675293L187,220.0423122406006L191.25,218.91135826110838L195.5,216.61795501708986L199.74999999999997,214.60729026794434L204,213.79042625427246L208.25,211.52837448120118L212.5,213.444841003418L216.75,210.64866371154784L221,210.74300575256348L225.25,210.46026725769042L229.5,206.75302772521974L233.75,206.4074424743652L238,201.1923122406006L242.25,204.83670501708986L246.50000000000003,203.51721076965333L250.75,203.9569942474365L255,169.11587448120116L259.25,154.66428451538087L263.5,152.21369247436525L267.75,147.56403923034668L272,147.24994926452638L276.25,143.5113582611084L280.5,142.00332374572753L284.75,140.9979194641113L289,135.37435722351074L293.25,134.49479026794432L297.5,133.4265392303467L301.75,131.76145973205564L305.99999999999994,130.19057846069336L310.25,128.52549896240237L314.5,124.40997123718262L318.75,126.38928451538084L323,121.73963127136233L327.25,122.17941474914551L331.5,118.06374320983889L335.75,116.80709571838378L340,116.61869926452636L344.25000000000006,116.96428451538088L348.5,111.52911872863768L352.75,109.76984100341798L357,107.57063598632811L361.25,108.04191474914552L365.5,107.25654602050781L369.75,103.80069351196289L374,102.35550575256349L378.25,101.66433525085449L382.5,98.39702301025392L386.75,96.73194351196287L391,97.67435722351075L395.25,95.16106224060059L399.49999999999994,94.5640899658203L403.75,93.68452301025388L408,91.26542625427248L412.25,88.90917625427244L416.5,89.03486976623537L420.75,86.23869247436522L425,85.20193672180176L429.25,83.34846076965334L433.5,83.00287551879882L437.75000000000006,78.95005073547361L442,81.21210250854494L446.25,77.4420162200928L450.5,77.59920501708984L454.74999999999994,77.12792625427244L459,75.08576622009275L463.25,74.36324424743651L467.5,52.560021972656266L471.75,44.26611976623536L476,41.784176254272445L480.25,37.825693511962875L484.5,36.631748962402355L488.75,33.77286872863771L493.00000000000006,33.61582374572754L497.25,31.259573745727547L501.5,31.44811401367189L505.75,31.039682006835953L510,30.222817993164078L514.25,28.1493064880371L518.5,26.89265899658204L522.75,26.766965484619156L527,25.918749999999992L531.25,26.89265899658204L535.5,23.719544982910172L539.75,23.876589965820305L544,21.740375518798828L548.25,22.337203979492188" style="fill: none;" fill="none"></path></g></g></g></g></g></g><g transform="translate(30, 377)" clip-path="url(#clip_1)"><clipPath id="clip_1"><rect width="595" height="23"></rect></clipPath><g><g><line x1="0" y1="0" x2="0" y2="5" style="visibility: inherit;" fill="rgb(0, 0, 0)" stroke="rgb(204, 204, 204)" stroke-width="1px"></line><line x1="42.5" y1="0" x2="42.5" y2="5" style="visibility: inherit;" fill="rgb(0, 0, 0)" stroke="rgb(204, 204, 204)" stroke-width="1px"></line><line x1="85" y1="0" x2="85" y2="5" style="visibility: inherit;" fill="rgb(0, 0, 0)" stroke="rgb(204, 204, 204)" stroke-width="1px"></line><line x1="127.5" y1="0" x2="127.5" y2="5" style="visibility: inherit;" fill="rgb(0, 0, 0)" stroke="rgb(204, 204, 204)" stroke-width="1px"></line><line x1="170" y1="0" x2="170" y2="5" style="visibility: inherit;" fill="rgb(0, 0, 0)" stroke="rgb(204, 204, 204)" stroke-width="1px"></line><line x1="212.5" y1="0" x2="212.5" y2="5" style="visibility: inherit;" fill="rgb(0, 0, 0)" stroke="rgb(204, 204, 204)" stroke-width="1px"></line><line x1="255" y1="0" x2="255" y2="5" style="visibility: inherit;" fill="rgb(0, 0, 0)" stroke="rgb(204, 204, 204)" stroke-width="1px"></line><line x1="297.5" y1="0" x2="297.5" y2="5" style="visibility: inherit;" fill="rgb(0, 0, 0)" stroke="rgb(204, 204, 204)" stroke-width="1px"></line><line x1="340" y1="0" x2="340" y2="5" style="visibility: inherit;" fill="rgb(0, 0, 0)" stroke="rgb(204, 204, 204)" stroke-width="1px"></line><line x1="382.5" y1="0" x2="382.5" y2="5" style="visibility: inherit;" fill="rgb(0, 0, 0)" stroke="rgb(204, 204, 204)" stroke-width="1px"></line><line x1="425" y1="0" x2="425" y2="5" style="visibility: inherit;" fill="rgb(0, 0, 0)" stroke="rgb(204, 204, 204)" stroke-width="1px"></line><line x1="467.5" y1="0" x2="467.5" y2="5" style="visibility: inherit;" fill="rgb(0, 0, 0)" stroke="rgb(204, 204, 204)" stroke-width="1px"></line><line x1="510" y1="0" x2="510" y2="5" style="visibility: inherit;" fill="rgb(0, 0, 0)" stroke="rgb(204, 204, 204)" stroke-width="1px"></line><line x1="552.5" y1="0" x2="552.5" y2="5" style="visibility: inherit;" fill="rgb(0, 0, 0)" stroke="rgb(204, 204, 204)" stroke-width="1px"></line><line x1="595" y1="0" x2="595" y2="5" style="visibility: inherit;" fill="rgb(0, 0, 0)" stroke="rgb(204, 204, 204)" stroke-width="1px"></line></g><g transform="translate(0, 8)"><text x="0" y="0" dx="0em" dy="0.95em" style="text-anchor: middle; visibility: hidden; font-family: Roboto, sans-serif; font-size: 12px; font-weight: 200;" fill="rgb(33, 33, 33)" stroke="none" stroke-width="1px">-10</text><text x="42.5" y="0" dx="0em" dy="0.95em" style="text-anchor: middle; visibility: inherit; font-family: Roboto, sans-serif; font-size: 12px; font-weight: 200;" fill="rgb(33, 33, 33)" stroke="none" stroke-width="1px">0</text><text x="85" y="0" dx="0em" dy="0.95em" style="text-anchor: middle; visibility: inherit; font-family: Roboto, sans-serif; font-size: 12px; font-weight: 200;" fill="rgb(33, 33, 33)" stroke="none" stroke-width="1px">10</text><text x="127.5" y="0" dx="0em" dy="0.95em" style="text-anchor: middle; visibility: inherit; font-family: Roboto, sans-serif; font-size: 12px; font-weight: 200;" fill="rgb(33, 33, 33)" stroke="none" stroke-width="1px">20</text><text x="170" y="0" dx="0em" dy="0.95em" style="text-anchor: middle; visibility: inherit; font-family: Roboto, sans-serif; font-size: 12px; font-weight: 200;" fill="rgb(33, 33, 33)" stroke="none" stroke-width="1px">30</text><text x="212.5" y="0" dx="0em" dy="0.95em" style="text-anchor: middle; visibility: inherit; font-family: Roboto, sans-serif; font-size: 12px; font-weight: 200;" fill="rgb(33, 33, 33)" stroke="none" stroke-width="1px">40</text><text x="255" y="0" dx="0em" dy="0.95em" style="text-anchor: middle; visibility: inherit; font-family: Roboto, sans-serif; font-size: 12px; font-weight: 200;" fill="rgb(33, 33, 33)" stroke="none" stroke-width="1px">50</text><text x="297.5" y="0" dx="0em" dy="0.95em" style="text-anchor: middle; visibility: inherit; font-family: Roboto, sans-serif; font-size: 12px; font-weight: 200;" fill="rgb(33, 33, 33)" stroke="none" stroke-width="1px">60</text><text x="340" y="0" dx="0em" dy="0.95em" style="text-anchor: middle; visibility: inherit; font-family: Roboto, sans-serif; font-size: 12px; font-weight: 200;" fill="rgb(33, 33, 33)" stroke="none" stroke-width="1px">70</text><text x="382.5" y="0" dx="0em" dy="0.95em" style="text-anchor: middle; visibility: inherit; font-family: Roboto, sans-serif; font-size: 12px; font-weight: 200;" fill="rgb(33, 33, 33)" stroke="none" stroke-width="1px">80</text><text x="425" y="0" dx="0em" dy="0.95em" style="text-anchor: middle; visibility: inherit; font-family: Roboto, sans-serif; font-size: 12px; font-weight: 200;" fill="rgb(33, 33, 33)" stroke="none" stroke-width="1px">90</text><text x="467.5" y="0" dx="0em" dy="0.95em" style="text-anchor: middle; visibility: inherit; font-family: Roboto, sans-serif; font-size: 12px; font-weight: 200;" fill="rgb(33, 33, 33)" stroke="none" stroke-width="1px">100</text><text x="510" y="0" dx="0em" dy="0.95em" style="text-anchor: middle; visibility: inherit; font-family: Roboto, sans-serif; font-size: 12px; font-weight: 200;" fill="rgb(33, 33, 33)" stroke="none" stroke-width="1px">110</text><text x="552.5" y="0" dx="0em" dy="0.95em" style="text-anchor: middle; visibility: inherit; font-family: Roboto, sans-serif; font-size: 12px; font-weight: 200;" fill="rgb(33, 33, 33)" stroke="none" stroke-width="1px">120</text><text x="595" y="0" dx="0em" dy="0.95em" style="text-anchor: middle; visibility: hidden; font-family: Roboto, sans-serif; font-size: 12px; font-weight: 200;" fill="rgb(33, 33, 33)" stroke="none" stroke-width="1px">130</text></g><line x1="0" y1="0" x2="595" y2="0" fill="rgb(0, 0, 0)" stroke="rgb(204, 204, 204)" stroke-width="1px"></line></g></g></g></g></svg>